<svg xmlns="http://www.w3.org/2000/svg" version="1.1" xmlns:xlink="http://www.w3.org/1999/xlink" xmlns:svgjs="http://svgjs.dev/svgjs" viewBox="0 0 800 800" opacity="1" width="800" height="800"><g stroke-width="4" stroke="hsla(229, 63%, 68%, 1.00)" fill="none"><circle r="8.026315789473685" cx="0" cy="0" fill="hsla(229, 63%, 68%, 1.00)" stroke="none"></circle><circle r="8.026315789473685" cx="114.28571428571429" cy="0" fill="hsla(229, 63%, 68%, 1.00)" stroke="none"></circle><circle r="8.026315789473685" cx="228.57142857142858" cy="0" fill="hsla(229, 63%, 68%, 1.00)" stroke="none"></circle><circle r="8.026315789473685" cx="342.8571428571429" cy="0" fill="hsla(229, 63%, 68%, 1.00)" stroke="none"></circle><circle r="8.026315789473685" cx="457.14285714285717" cy="0" fill="hsla(229, 63%, 68%, 1.00)" stroke="none"></circle><circle r="8.026315789473685" cx="571.4285714285714" cy="0" fill="hsla(229, 63%, 68%, 1.00)" stroke="none"></circle><circle r="8.026315789473685" cx="685.7142857142858" cy="0" fill="hsla(229, 63%, 68%, 1.00)" stroke="none"></circle><circle r="8.026315789473685" cx="800.0000000000001" cy="0" fill="hsla(229, 63%, 68%, 1.00)" stroke="none"></circle><circle r="8.026315789473685" cx="0" cy="61.53846153846154" fill="hsla(229, 63%, 68%, 1.00)" stroke="none"></circle><circle r="8.026315789473685" cx="114.28571428571429" cy="61.53846153846154" fill="hsla(229, 63%, 68%, 1.00)" stroke="none"></circle><circle r="8.026315789473685" cx="228.57142857142858" cy="61.53846153846154" fill="hsla(229, 63%, 68%, 1.00)" stroke="none"></circle><circle r="8.026315789473685" cx="342.8571428571429" cy="61.53846153846154" fill="hsla(229, 63%, 68%, 1.00)" stroke="none"></circle><circle r="8.026315789473685" cx="457.14285714285717" cy="61.53846153846154" fill="hsla(229, 63%, 68%, 1.00)" stroke="none"></circle><circle r="8.026315789473685" cx="571.4285714285714" cy="61.53846153846154" fill="none"></circle><circle r="8.026315789473685" cx="685.7142857142858" cy="61.53846153846154" fill="hsla(229, 63%, 68%, 1.00)" stroke="none"></circle><circle r="8.026315789473685" cx="800.0000000000001" cy="61.53846153846154" fill="hsla(229, 63%, 68%, 1.00)" stroke="none"></circle><circle r="8.026315789473685" cx="0" cy="123.07692307692308" fill="hsla(229, 63%, 68%, 1.00)" stroke="none"></circle><circle r="8.026315789473685" cx="114.28571428571429" cy="123.07692307692308" fill="hsla(229, 63%, 68%, 1.00)" stroke="none"></circle><circle r="8.026315789473685" cx="228.57142857142858" cy="123.07692307692308" fill="hsla(229, 63%, 68%, 1.00)" stroke="none"></circle><circle r="8.026315789473685" cx="342.8571428571429" cy="123.07692307692308" fill="none"></circle><circle r="8.026315789473685" cx="457.14285714285717" cy="123.07692307692308" fill="hsla(229, 63%, 68%, 1.00)" stroke="none"></circle><circle r="8.026315789473685" cx="571.4285714285714" cy="123.07692307692308" fill="hsla(229, 63%, 68%, 1.00)" stroke="none"></circle><circle r="8.026315789473685" cx="685.7142857142858" cy="123.07692307692308" fill="hsla(229, 63%, 68%, 1.00)" stroke="none"></circle><circle r="8.026315789473685" cx="800.0000000000001" cy="123.07692307692308" fill="hsla(229, 63%, 68%, 1.00)" stroke="none"></circle><circle r="8.026315789473685" cx="0" cy="184.6153846153846" fill="hsla(229, 63%, 68%, 1.00)" stroke="none"></circle><circle r="8.026315789473685" cx="114.28571428571429" cy="184.6153846153846" fill="none"></circle><circle r="8.026315789473685" cx="228.57142857142858" cy="184.6153846153846" fill="none"></circle><circle r="8.026315789473685" cx="342.8571428571429" cy="184.6153846153846" fill="none"></circle><circle r="8.026315789473685" cx="457.14285714285717" cy="184.6153846153846" fill="none"></circle><circle r="8.026315789473685" cx="571.4285714285714" cy="184.6153846153846" fill="none"></circle><circle r="8.026315789473685" cx="685.7142857142858" cy="184.6153846153846" fill="hsla(229, 63%, 68%, 1.00)" stroke="none"></circle><circle r="8.026315789473685" cx="800.0000000000001" cy="184.6153846153846" fill="hsla(229, 63%, 68%, 1.00)" stroke="none"></circle><circle r="8.026315789473685" cx="0" cy="246.15384615384616" fill="hsla(229, 63%, 68%, 1.00)" stroke="none"></circle><circle r="8.026315789473685" cx="114.28571428571429" cy="246.15384615384616" fill="hsla(229, 63%, 68%, 1.00)" stroke="none"></circle><circle r="8.026315789473685" cx="228.57142857142858" cy="246.15384615384616" fill="none"></circle><circle r="8.026315789473685" cx="342.8571428571429" cy="246.15384615384616" fill="none"></circle><circle r="8.026315789473685" cx="457.14285714285717" cy="246.15384615384616" fill="hsla(229, 63%, 68%, 1.00)" stroke="none"></circle><circle r="8.026315789473685" cx="571.4285714285714" cy="246.15384615384616" fill="hsla(229, 63%, 68%, 1.00)" stroke="none"></circle><circle r="8.026315789473685" cx="685.7142857142858" cy="246.15384615384616" fill="none"></circle><circle r="8.026315789473685" cx="800.0000000000001" cy="246.15384615384616" fill="hsla(229, 63%, 68%, 1.00)" stroke="none"></circle><circle r="8.026315789473685" cx="0" cy="307.6923076923077" fill="hsla(229, 63%, 68%, 1.00)" stroke="none"></circle><circle r="8.026315789473685" cx="114.28571428571429" cy="307.6923076923077" fill="hsla(229, 63%, 68%, 1.00)" stroke="none"></circle><circle r="8.026315789473685" cx="228.57142857142858" cy="307.6923076923077" fill="hsla(229, 63%, 68%, 1.00)" stroke="none"></circle><circle r="8.026315789473685" cx="342.8571428571429" cy="307.6923076923077" fill="hsla(229, 63%, 68%, 1.00)" stroke="none"></circle><circle r="8.026315789473685" cx="457.14285714285717" cy="307.6923076923077" fill="hsla(229, 63%, 68%, 1.00)" stroke="none"></circle><circle r="8.026315789473685" cx="571.4285714285714" cy="307.6923076923077" fill="none"></circle><circle r="8.026315789473685" cx="685.7142857142858" cy="307.6923076923077" fill="hsla(229, 63%, 68%, 1.00)" stroke="none"></circle><circle r="8.026315789473685" cx="800.0000000000001" cy="307.6923076923077" fill="hsla(229, 63%, 68%, 1.00)" stroke="none"></circle><circle r="8.026315789473685" cx="0" cy="369.2307692307692" fill="hsla(229, 63%, 68%, 1.00)" stroke="none"></circle><circle r="8.026315789473685" cx="114.28571428571429" cy="369.2307692307692" fill="hsla(229, 63%, 68%, 1.00)" stroke="none"></circle><circle r="8.026315789473685" cx="228.57142857142858" cy="369.2307692307692" fill="hsla(229, 63%, 68%, 1.00)" stroke="none"></circle><circle r="8.026315789473685" cx="342.8571428571429" cy="369.2307692307692" fill="hsla(229, 63%, 68%, 1.00)" stroke="none"></circle><circle r="8.026315789473685" cx="457.14285714285717" cy="369.2307692307692" fill="hsla(229, 63%, 68%, 1.00)" stroke="none"></circle><circle r="8.026315789473685" cx="571.4285714285714" cy="369.2307692307692" fill="hsla(229, 63%, 68%, 1.00)" stroke="none"></circle><circle r="8.026315789473685" cx="685.7142857142858" cy="369.2307692307692" fill="hsla(229, 63%, 68%, 1.00)" stroke="none"></circle><circle r="8.026315789473685" cx="800.0000000000001" cy="369.2307692307692" fill="hsla(229, 63%, 68%, 1.00)" stroke="none"></circle><circle r="8.026315789473685" cx="0" cy="430.7692307692308" fill="hsla(229, 63%, 68%, 1.00)" stroke="none"></circle><circle r="8.026315789473685" cx="114.28571428571429" cy="430.7692307692308" fill="hsla(229, 63%, 68%, 1.00)" stroke="none"></circle><circle r="8.026315789473685" cx="228.57142857142858" cy="430.7692307692308" fill="hsla(229, 63%, 68%, 1.00)" stroke="none"></circle><circle r="8.026315789473685" cx="342.8571428571429" cy="430.7692307692308" fill="hsla(229, 63%, 68%, 1.00)" stroke="none"></circle><circle r="8.026315789473685" cx="457.14285714285717" cy="430.7692307692308" fill="hsla(229, 63%, 68%, 1.00)" stroke="none"></circle><circle r="8.026315789473685" cx="571.4285714285714" cy="430.7692307692308" fill="hsla(229, 63%, 68%, 1.00)" stroke="none"></circle><circle r="8.026315789473685" cx="685.7142857142858" cy="430.7692307692308" fill="hsla(229, 63%, 68%, 1.00)" stroke="none"></circle><circle r="8.026315789473685" cx="800.0000000000001" cy="430.7692307692308" fill="hsla(229, 63%, 68%, 1.00)" stroke="none"></circle><circle r="8.026315789473685" cx="0" cy="492.3076923076923" fill="hsla(229, 63%, 68%, 1.00)" stroke="none"></circle><circle r="8.026315789473685" cx="114.28571428571429" cy="492.3076923076923" fill="hsla(229, 63%, 68%, 1.00)" stroke="none"></circle><circle r="8.026315789473685" cx="228.57142857142858" cy="492.3076923076923" fill="hsla(229, 63%, 68%, 1.00)" stroke="none"></circle><circle r="8.026315789473685" cx="342.8571428571429" cy="492.3076923076923" fill="hsla(229, 63%, 68%, 1.00)" stroke="none"></circle><circle r="8.026315789473685" cx="457.14285714285717" cy="492.3076923076923" fill="hsla(229, 63%, 68%, 1.00)" stroke="none"></circle><circle r="8.026315789473685" cx="571.4285714285714" cy="492.3076923076923" fill="hsla(229, 63%, 68%, 1.00)" stroke="none"></circle><circle r="8.026315789473685" cx="685.7142857142858" cy="492.3076923076923" fill="hsla(229, 63%, 68%, 1.00)" stroke="none"></circle><circle r="8.026315789473685" cx="800.0000000000001" cy="492.3076923076923" fill="hsla(229, 63%, 68%, 1.00)" stroke="none"></circle><circle r="8.026315789473685" cx="0" cy="553.8461538461538" fill="hsla(229, 63%, 68%, 1.00)" stroke="none"></circle><circle r="8.026315789473685" cx="114.28571428571429" cy="553.8461538461538" fill="hsla(229, 63%, 68%, 1.00)" stroke="none"></circle><circle r="8.026315789473685" cx="228.57142857142858" cy="553.8461538461538" fill="none"></circle><circle r="8.026315789473685" cx="342.8571428571429" cy="553.8461538461538" fill="hsla(229, 63%, 68%, 1.00)" stroke="none"></circle><circle r="8.026315789473685" cx="457.14285714285717" cy="553.8461538461538" fill="hsla(229, 63%, 68%, 1.00)" stroke="none"></circle><circle r="8.026315789473685" cx="571.4285714285714" cy="553.8461538461538" fill="hsla(229, 63%, 68%, 1.00)" stroke="none"></circle><circle r="8.026315789473685" cx="685.7142857142858" cy="553.8461538461538" fill="none"></circle><circle r="8.026315789473685" cx="800.0000000000001" cy="553.8461538461538" fill="hsla(229, 63%, 68%, 1.00)" stroke="none"></circle><circle r="8.026315789473685" cx="0" cy="615.3846153846154" fill="hsla(229, 63%, 68%, 1.00)" stroke="none"></circle><circle r="8.026315789473685" cx="114.28571428571429" cy="615.3846153846154" fill="hsla(229, 63%, 68%, 1.00)" stroke="none"></circle><circle r="8.026315789473685" cx="228.57142857142858" cy="615.3846153846154" fill="hsla(229, 63%, 68%, 1.00)" stroke="none"></circle><circle r="8.026315789473685" cx="342.8571428571429" cy="615.3846153846154" fill="hsla(229, 63%, 68%, 1.00)" stroke="none"></circle><circle r="8.026315789473685" cx="457.14285714285717" cy="615.3846153846154" fill="hsla(229, 63%, 68%, 1.00)" stroke="none"></circle><circle r="8.026315789473685" cx="571.4285714285714" cy="615.3846153846154" fill="none"></circle><circle r="8.026315789473685" cx="685.7142857142858" cy="615.3846153846154" fill="none"></circle><circle r="8.026315789473685" cx="800.0000000000001" cy="615.3846153846154" fill="hsla(229, 63%, 68%, 1.00)" stroke="none"></circle><circle r="8.026315789473685" cx="0" cy="676.9230769230769" fill="hsla(229, 63%, 68%, 1.00)" stroke="none"></circle><circle r="8.026315789473685" cx="114.28571428571429" cy="676.9230769230769" fill="hsla(229, 63%, 68%, 1.00)" stroke="none"></circle><circle r="8.026315789473685" cx="228.57142857142858" cy="676.9230769230769" fill="hsla(229, 63%, 68%, 1.00)" stroke="none"></circle><circle r="8.026315789473685" cx="342.8571428571429" cy="676.9230769230769" fill="none"></circle><circle r="8.026315789473685" cx="457.14285714285717" cy="676.9230769230769" fill="none"></circle><circle r="8.026315789473685" cx="571.4285714285714" cy="676.9230769230769" fill="hsla(229, 63%, 68%, 1.00)" stroke="none"></circle><circle r="8.026315789473685" cx="685.7142857142858" cy="676.9230769230769" fill="none"></circle><circle r="8.026315789473685" cx="800.0000000000001" cy="676.9230769230769" fill="hsla(229, 63%, 68%, 1.00)" stroke="none"></circle><circle r="8.026315789473685" cx="0" cy="738.4615384615385" fill="hsla(229, 63%, 68%, 1.00)" stroke="none"></circle><circle r="8.026315789473685" cx="114.28571428571429" cy="738.4615384615385" fill="hsla(229, 63%, 68%, 1.00)" stroke="none"></circle><circle r="8.026315789473685" cx="228.57142857142858" cy="738.4615384615385" fill="hsla(229, 63%, 68%, 1.00)" stroke="none"></circle><circle r="8.026315789473685" cx="342.8571428571429" cy="738.4615384615385" fill="hsla(229, 63%, 68%, 1.00)" stroke="none"></circle><circle r="8.026315789473685" cx="457.14285714285717" cy="738.4615384615385" fill="hsla(229, 63%, 68%, 1.00)" stroke="none"></circle><circle r="8.026315789473685" cx="571.4285714285714" cy="738.4615384615385" fill="hsla(229, 63%, 68%, 1.00)" stroke="none"></circle><circle r="8.026315789473685" cx="685.7142857142858" cy="738.4615384615385" fill="hsla(229, 63%, 68%, 1.00)" stroke="none"></circle><circle r="8.026315789473685" cx="800.0000000000001" cy="738.4615384615385" fill="hsla(229, 63%, 68%, 1.00)" stroke="none"></circle><circle r="8.026315789473685" cx="0" cy="800" fill="hsla(229, 63%, 68%, 1.00)" stroke="none"></circle><circle r="8.026315789473685" cx="114.28571428571429" cy="800" fill="hsla(229, 63%, 68%, 1.00)" stroke="none"></circle><circle r="8.026315789473685" cx="228.57142857142858" cy="800" fill="hsla(229, 63%, 68%, 1.00)" stroke="none"></circle><circle r="8.026315789473685" cx="342.8571428571429" cy="800" fill="hsla(229, 63%, 68%, 1.00)" stroke="none"></circle><circle r="8.026315789473685" cx="457.14285714285717" cy="800" fill="hsla(229, 63%, 68%, 1.00)" stroke="none"></circle><circle r="8.026315789473685" cx="571.4285714285714" cy="800" fill="hsla(229, 63%, 68%, 1.00)" stroke="none"></circle><circle r="8.026315789473685" cx="685.7142857142858" cy="800" fill="hsla(229, 63%, 68%, 1.00)" stroke="none"></circle><circle r="8.026315789473685" cx="800.0000000000001" cy="800" fill="hsla(229, 63%, 68%, 1.00)" stroke="none"></circle></g></svg>